<svg id="Layer_2" height="512" viewBox="0 0 128 128" width="512" xmlns="http://www.w3.org/2000/svg" data-name="Layer 2"><path d="m126.25 43.428a14.579 14.579 0 0 1 -14.57 14.572h-95.36a14.572 14.572 0 0 1 -14.57-14.572 14.673 14.673 0 0 1 4.14-10.18 53.947 53.947 0 0 1 38.02-16.24c.19-.01.38-.01.57-.01h39.04c.19 0 .38 0 .57.01a53.937 53.937 0 0 1 38.02 16.24 14.673 14.673 0 0 1 4.14 10.18z" fill="#ffaf10"/><path d="m9.422 57.995h109.156a7.672 7.672 0 0 1 7.672 7.672 4.335 4.335 0 0 1 -4.335 4.333h-115.83a4.335 4.335 0 0 1 -4.335-4.333 7.672 7.672 0 0 1 7.672-7.672z" fill="#632855"/><path d="m126.25 77c-6.229 0-6.229 6-12.457 6s-6.229-6-12.457-6-6.224 6-12.449 6-6.226-6-12.453-6-6.224 6-12.448 6-6.223-6-12.445-6-6.223 6-12.445 6-6.224-6-12.448-6-6.225 6-12.448 6-6.225-6-12.45-6c0-3.864 3.634-7 8.116-7h108.268c4.482 0 8.116 3.133 8.116 7z" fill="#60d882"/><path d="m107.528 79.954-23.15 12.3-20.378 10.83-20.378-10.83-23.15-12.3c1.527-1.49 3.089-2.96 6.178-2.96 6.225 0 6.225 6 12.45 6s6.213-6 12.438-6 6.225 6 12.45 6 6.225-6 12.45-6 6.225 6 12.45 6 6.225-6 12.45-6c3.089 0 4.64 1.47 6.19 2.96z" fill="#ffd00d"/><path d="m14.2 82.994c-6.225 0-6.225-6-12.45-6v8.26a7 7 0 0 0 7 7h34.872l-23.15-12.3c-1.572 1.51-3.136 3.04-6.272 3.04z" fill="#f43d58"/><path d="m113.788 82.994c-3.136 0-4.7-1.53-6.26-3.04l-23.15 12.3h34.872a7 7 0 0 0 7-7v-8.26c-6.225 0-6.225 6-12.462 6z" fill="#f43d58"/><path d="m121.25 92.252h-36.867l-20.383 10.832-20.378-10.83h-36.872a5 5 0 0 0 -5 5v2.746a11 11 0 0 0 11 11h102.5a11 11 0 0 0 11-11v-2.75a5 5 0 0 0 -5-4.998z" fill="#ffaf10"/><g fill="#ff9518"><path d="m51.5 18.488c0 2.18-3.94 7.17-3.94 7.17s-3.94-4.99-3.94-7.17a3.792 3.792 0 0 1 .29-1.48c.19-.01.38-.01.57-.01h6.72a3.707 3.707 0 0 1 .3 1.49z"/><path d="m84.38 18.488c0 2.18-3.94 7.17-3.94 7.17s-3.94-4.99-3.94-7.17a3.707 3.707 0 0 1 .3-1.488h6.72c.19 0 .38 0 .57.01a3.792 3.792 0 0 1 .29 1.478z"/><path d="m60.061 35.5c0-2.175 3.939-7.169 3.939-7.169s3.939 4.993 3.939 7.169a3.939 3.939 0 0 1 -7.878 0z"/><path d="m89.025 35.5c0-2.175 3.939-7.169 3.939-7.169s3.936 4.996 3.936 7.169a3.939 3.939 0 0 1 -7.878 0z"/><path d="m38.975 35.5c0-2.175-3.939-7.169-3.939-7.169s-3.936 4.996-3.936 7.169a3.939 3.939 0 1 0 7.878 0z"/></g></svg>